<?xml version="1.0" encoding="iso-8859-1"?>
<!-- Uploaded to: SVG Repo, www.svgrepo.com, Generator: SVG Repo Mixer Tools -->
<svg fill="#000000" height="800px" width="800px" version="1.1" id="Layer_1" xmlns="http://www.w3.org/2000/svg" xmlns:xlink="http://www.w3.org/1999/xlink" 
	 viewBox="0 0 512.006 512.006" xml:space="preserve">
<g>
	<g>
		<g>
			<path d="M85.435,236.885c-6.946-1.306-13.645,3.26-14.95,10.214c-1.314,6.946,3.26,13.636,10.206,14.942
				c6.946,1.314,13.645-3.26,14.95-10.206C96.947,244.889,92.381,238.199,85.435,236.885z"/>
			<path d="M142.556,256.329c-6.946-1.306-13.645,3.26-14.95,10.214c-1.314,6.946,3.26,13.636,10.206,14.942
				c6.946,1.314,13.645-3.26,14.95-10.206C154.067,264.334,149.502,257.644,142.556,256.329z"/>
			<path d="M109.045,307.42c-6.946-1.306-13.645,3.26-14.95,10.214c-1.314,6.946,3.26,13.636,10.206,14.942
				c6.946,1.314,13.645-3.26,14.95-10.206C120.557,315.424,115.991,308.734,109.045,307.42z"/>
			<path d="M223.628,102.586L61.494,68.452c-4.681-0.986-9.258,2.069-10.144,6.77C24.677,216.789,27.864,366.862,78.165,390.685
				L66.9,450.482l-8.393-1.58c-23.156-4.362-45.461,10.87-49.824,34.028c-0.872,4.631,2.175,9.093,6.806,9.966l100.634,18.961
				c4.631,0.873,9.093-2.175,9.966-6.806c4.363-23.157-10.878-45.471-34.036-49.833l-8.381-1.578l11.257-59.756
				c54.861-3.383,107.868-135.636,135.327-281.368C231.115,107.954,228.17,103.542,223.628,102.586z M109.465,493.235
				l-80.999-15.262c5.293-9.12,15.928-14.363,26.883-12.299l33.546,6.315C99.848,474.053,107.851,482.812,109.465,493.235z
				 M89.513,376.591c-0.003-0.001-0.007-0.002-0.01-0.002c-0.004-0.001-0.007-0.001-0.011-0.002
				c-29.225-5.525-40.55-80.617-36.264-171.567l129.004,27.688C154.269,318.831,118.581,382.05,89.513,376.591z M187.367,216.354
				L54.212,187.776c2.207-32.834,6.353-67.234,12.338-100.818l145.354,30.601C205.197,151.642,196.811,185.229,187.367,216.354z"/>
			<path d="M503.322,482.93c-4.363-23.157-26.668-38.39-49.825-34.027l-8.391,1.58l-11.265-59.798
				c50.301-23.823,53.487-173.896,26.814-315.462c-0.886-4.701-5.462-7.756-10.144-6.77l-162.133,34.133
				c-4.543,0.956-7.487,5.368-6.628,9.93c27.458,145.732,80.466,277.986,135.327,281.368l11.257,59.756l-8.38,1.578
				c-23.159,4.363-38.4,26.677-34.037,49.834c0.873,4.631,5.334,7.679,9.966,6.806l100.634-18.961
				C501.148,492.023,504.195,487.561,503.322,482.93z M445.456,86.958c5.985,33.584,10.132,67.984,12.338,100.818l-133.155,28.579
				c-9.444-31.126-17.83-64.713-24.537-98.796L445.456,86.958z M329.774,232.708l129.004-27.688
				c4.286,90.949-7.039,166.041-36.263,171.567c-0.004,0.001-0.008,0.001-0.012,0.002c-0.004,0.001-0.007,0.002-0.011,0.003
				C393.425,382.049,357.737,318.83,329.774,232.708z M402.541,493.235c1.614-10.423,9.617-19.182,20.572-21.246l33.543-6.314
				c10.955-2.064,21.59,3.179,26.884,12.299L402.541,493.235z"/>
			<path d="M431.315,262.041c6.946-1.306,11.52-7.996,10.206-14.942c-1.306-6.955-8.004-11.52-14.95-10.214
				c-6.946,1.314-11.511,8.004-10.206,14.95C417.67,258.781,424.369,263.355,431.315,262.041z"/>
			<path d="M369.45,256.329c-6.946,1.314-11.511,8.004-10.206,14.95c1.306,6.946,8.004,11.52,14.95,10.206
				c6.946-1.306,11.52-7.996,10.206-14.942C383.095,259.589,376.396,255.024,369.45,256.329z"/>
			<path d="M402.961,307.42c-6.946,1.314-11.511,8.004-10.206,14.95c1.306,6.946,8.004,11.52,14.95,10.206
				c6.946-1.306,11.52-7.996,10.206-14.942C416.606,310.68,409.908,306.115,402.961,307.42z"/>
			<path d="M314.427,45.315c1.25-4.786,1.527-8.833,1.178-12.014c-0.035-0.316-0.067-0.561-0.106-0.803
				c-1.955-18.322-16.566-32.489-35.245-32.489c-9.446,0-18.194,3.152-24.643,8.747C249.435,3.129,241.116,0,231.75,0
				c-18.675,0-33.294,14.182-35.245,32.506c-0.039,0.242-0.071,0.487-0.105,0.802c-0.344,3.173-0.067,7.213,1.176,11.993
				c2.59,9.943,8.586,18.901,16.974,25.788l36.06,29.391c3.139,2.558,7.643,2.558,10.782,0.001l36.045-29.372
				C305.838,64.214,311.836,55.249,314.427,45.315z M286.633,57.899l-30.63,24.959L225.357,57.88
				c-5.668-4.654-9.617-10.555-11.265-16.879c-0.715-2.749-0.849-4.71-0.725-5.855c-0.001,0.008,0.005-0.031-0.054,0.284
				l0.144-0.934c0.981-10.005,8.578-17.43,18.294-17.43c7.624,0,13.245,3.403,15.986,9.292c3.061,6.577,12.412,6.577,15.473,0
				c2.606-5.599,9.095-9.284,17.044-9.284c9.724,0,17.312,7.416,18.294,17.422l0.148,0.954c-0.061-0.319-0.055-0.28-0.056-0.29
				c0.125,1.14-0.009,3.096-0.727,5.844C296.264,47.33,292.311,53.238,286.633,57.899z"/>
		</g>
	</g>
</g>
</svg>